# xmcd
#
# Track frame offsets:
#	150
#	22128
#	44766
#	62183
#	75758
#	95633
#	114793
#	133181
#	147608
#	159274
#	181930
#	195956
#	223736
#	236846
#	255614
#	281339
#
# Disc length: 3957 seconds
#
# Revision: 0
# Processed by: cddbd v1.4PL0 Copyright (c) Steve Scherf et al.
# Submitted via: audiograbber 1.82.02
#
DISCID=e40f7310
DTITLE=Brian Knight - 1861
DYEAR=1900
DGENRE=Blues
TTITLE0=Storming Home
TTITLE1=Repossession
TTITLE2=Honk Tonk Women
TTITLE3=Chicago Calling Davies
TTITLE4=That's All I Want Babe
TTITLE5=Young Fashioned Ways
TTITLE6=Cold Cold Bed
TTITLE7=Westbound Thunderbird
TTITLE8=(Ain't) Built For Comfort
TTITLE9=Hesitation Blues
TTITLE10=Angie's Got It Cookin'
TTITLE11=Sit Right Down N' Cry
TTITLE12=Strangers Blues
TTITLE13=K. C. Moan
TTITLE14=Sweet Home Chicago
TTITLE15=Weeping Willow
EXTD=
EXTT0=
EXTT1=
EXTT2=
EXTT3=
EXTT4=
EXTT5=
EXTT6=
EXTT7=
EXTT8=
EXTT9=
EXTT10=
EXTT11=
EXTT12=
EXTT13=
EXTT14=
EXTT15=
PLAYORDER=
